<svg width="9" height="9" viewBox="0 0 9 9" fill="none" xmlns="http://www.w3.org/2000/svg">
<path d="M7.47811 0H2.03948C1.86001 0 1.68604 0.0707659 1.56095 0.201293C1.43042 0.326381 1.35966 0.500354 1.35966 0.679828V1.35966H0.679828C0.500354 1.35966 0.326381 1.43042 0.201293 1.56095C0.0707659 1.68604 0 1.86001 0 2.03948V7.47811C0 7.65758 0.0707659 7.83156 0.201293 7.95665C0.326381 8.08717 0.500354 8.15794 0.679828 8.15794H6.11845C6.29793 8.15794 6.4719 8.08717 6.59699 7.95665C6.72752 7.83156 6.79828 7.65758 6.79828 7.47811V6.79828H7.47811C7.65758 6.79828 7.83156 6.72752 7.95665 6.59699C8.08717 6.4719 8.15794 6.29793 8.15794 6.11845V0.679828C8.15794 0.500354 8.08717 0.326381 7.95665 0.201293C7.83156 0.0707659 7.65758 0 7.47811 0ZM2.03948 0.679828H7.47811V3.62752L6.77106 2.92061C6.64053 2.79008 6.46656 2.71931 6.28708 2.71931C6.10761 2.71931 5.9335 2.79008 5.80841 2.92061L2.60512 6.11845H2.03948V0.679828ZM6.11845 7.47811H0.679828V2.03948H1.35966V6.11845C1.35966 6.29793 1.43042 6.4719 1.56095 6.59699C1.68604 6.72752 1.86001 6.79828 2.03948 6.79828H6.11845V7.47811ZM7.47811 6.11845H3.56777L6.28708 3.39914L7.47811 4.59017V6.11845ZM3.74171 3.39914C3.94294 3.39914 4.13875 3.33941 4.30735 3.2252C4.47595 3.11643 4.60657 2.95853 4.68271 2.76818C4.75886 2.58326 4.78053 2.37655 4.73702 2.18076C4.69895 1.98497 4.60105 1.80008 4.45965 1.65867C4.31824 1.51727 4.13335 1.4195 3.93756 1.38143C3.74177 1.33792 3.53506 1.35973 3.35015 1.43587C3.15979 1.51201 3.00216 1.64251 2.89339 1.8111C2.77917 1.9797 2.71931 2.17539 2.71931 2.38205C2.71931 2.64855 2.82811 2.90977 3.01846 3.10012C3.20882 3.29047 3.46978 3.39914 3.74171 3.39914ZM3.74171 2.03948C3.80697 2.03948 3.87229 2.06116 3.92667 2.09924C3.9865 2.13187 4.02999 2.1864 4.05175 2.25167C4.07894 2.31149 4.0844 2.38212 4.07352 2.44738C4.05721 2.51264 4.02462 2.57237 3.98111 2.62132C3.93216 2.66483 3.8723 2.69769 3.80704 2.714C3.74177 2.72488 3.67101 2.71942 3.61119 2.69223C3.54593 2.67047 3.49166 2.62697 3.45902 2.56715C3.42095 2.51276 3.39914 2.44732 3.39914 2.38205C3.39914 2.2896 3.43717 2.20274 3.497 2.13748C3.56226 2.07765 3.64925 2.03948 3.74171 2.03948Z" fill="black"/>
</svg>
