<svg width="9" height="9" viewBox="0 0 9 9" fill="none" xmlns="http://www.w3.org/2000/svg">
<path d="M8.29935 2.09392L6.40127 0.195982C6.33601 0.136157 6.25992 0.08176 6.17834 0.0491282C6.09676 0.0164965 6.00962 0 5.91716 0C5.83014 0 5.74314 0.0164965 5.66156 0.0491282C5.57454 0.08176 5.50389 0.136157 5.43863 0.195982L0.201293 5.43331C0.136029 5.49858 0.0870658 5.57454 0.0489954 5.65612C0.0163637 5.7377 0 5.8247 0 5.91716V7.81537C0 7.99484 0.0707659 8.16881 0.201293 8.2939C0.326381 8.42443 0.500354 8.4952 0.679828 8.4952H7.82068C7.9077 8.4952 7.99482 8.45703 8.06008 8.39721C8.1199 8.33194 8.15794 8.24508 8.15794 8.15263C8.15794 8.06561 8.1199 7.97862 8.06008 7.91336C7.99482 7.85353 7.9077 7.81537 7.82068 7.81537H3.54055L8.29935 3.05657C8.36461 2.99131 8.41357 2.92052 8.4462 2.8335C8.47883 2.75192 8.50051 2.66505 8.50051 2.57804C8.50051 2.48558 8.47883 2.39857 8.4462 2.31699C8.41357 2.23541 8.36461 2.15919 8.29935 2.09392ZM2.5779 7.81537H0.679828V5.91716L4.42154 2.17545L6.31975 4.07366L2.5779 7.81537ZM6.79828 3.59512L4.90021 1.69691L5.91716 0.674517L7.82068 2.57804L6.79828 3.59512Z" fill="black"/>
</svg>
