<svg width="9" height="9" viewBox="0 0 9 9" fill="none" xmlns="http://www.w3.org/2000/svg">
<path d="M8.75158 8.75716C8.68632 8.81699 8.59933 8.84957 8.51232 8.84957C8.41986 8.84957 8.33287 8.81699 8.2676 8.75716L6.43472 6.91339C5.66244 7.56603 4.66725 7.8923 3.66111 7.8216C2.65496 7.75634 1.70859 7.30503 1.02876 6.55993C0.343496 5.82028 -0.0208337 4.84132 0.000920805 3.82973C0.0226753 2.81815 0.430493 1.86098 1.14295 1.14308C1.86085 0.430625 2.81802 0.022675 3.8296 0.000920494C4.84119 -0.020834 5.82015 0.343628 6.5598 1.0289C7.30489 1.70872 7.75634 2.65496 7.8216 3.6611C7.8923 4.66725 7.56603 5.66257 6.91339 6.43486L8.75158 8.26747C8.78422 8.3001 8.80604 8.33815 8.8278 8.38166C8.84411 8.42517 8.84958 8.46881 8.84958 8.51232C8.84958 8.55582 8.84411 8.59946 8.8278 8.64297C8.80604 8.68648 8.78422 8.72453 8.75158 8.75716ZM3.92215 7.15266C4.56391 7.15266 5.18394 6.96231 5.71692 6.6088C6.24991 6.25529 6.66321 5.74954 6.90795 5.15673C7.15269 4.56936 7.21786 3.92206 7.09278 3.29118C6.96769 2.66574 6.65775 2.08923 6.20634 1.63782C5.75494 1.18641 5.17842 0.882052 4.55298 0.756964C3.92754 0.631875 3.28038 0.697054 2.68757 0.941792C2.1002 1.18653 1.59432 1.5997 1.24081 2.12724C0.881861 2.66023 0.691637 3.28583 0.691637 3.92215C0.697075 4.78145 1.03427 5.60252 1.6434 6.20621C2.24708 6.8099 3.06828 7.15266 3.92215 7.15266Z" fill="black"/>
</svg>
