<svg width="8" height="9" viewBox="0 0 8 9" fill="none" xmlns="http://www.w3.org/2000/svg">
<path d="M0.685139 3.05657V5.77588C0.685139 5.86834 0.647101 5.94989 0.581837 6.01515C0.516574 6.08042 0.435026 6.11314 0.34257 6.11314C0.250113 6.11314 0.168566 6.08042 0.103302 6.01515C0.0380385 5.94989 0 5.86834 0 5.77588V3.05657C0 2.96411 0.0380385 2.88257 0.103302 2.8173C0.168566 2.75204 0.250113 2.71931 0.34257 2.71931C0.435026 2.71931 0.516574 2.75204 0.581837 2.8173C0.647101 2.88257 0.685139 2.96411 0.685139 3.05657ZM2.0448 0C1.95234 0 1.86548 0.0327274 1.80022 0.0979909C1.74039 0.163254 1.70223 0.244802 1.70223 0.337258V8.4952C1.70223 8.58765 1.74039 8.6692 1.80022 8.73446C1.86548 8.79973 1.95234 8.83245 2.0448 8.83245C2.13181 8.83245 2.2188 8.79973 2.28406 8.73446C2.34389 8.6692 2.38205 8.58765 2.38205 8.4952V0.337258C2.38205 0.244802 2.34389 0.163254 2.28406 0.0979909C2.2188 0.0327274 2.13181 0 2.0448 0ZM3.74171 1.35966C3.64925 1.35966 3.56771 1.39238 3.50244 1.45765C3.43718 1.52291 3.40445 1.60446 3.40445 1.69691V7.13554C3.40445 7.228 3.43718 7.30954 3.50244 7.37481C3.56771 7.44007 3.64925 7.4728 3.74171 7.4728C3.83417 7.4728 3.91571 7.44007 3.98098 7.37481C4.04624 7.30954 4.07897 7.228 4.07897 7.13554V1.69691C4.07897 1.60446 4.04624 1.52291 3.98098 1.45765C3.91571 1.39238 3.83417 1.35966 3.74171 1.35966ZM5.43863 2.71931C5.35161 2.71931 5.26462 2.75204 5.19936 2.8173C5.13953 2.88257 5.10137 2.96411 5.10137 3.05657V5.77588C5.10137 5.86834 5.13953 5.94989 5.19936 6.01515C5.26462 6.08042 5.35161 6.11314 5.43863 6.11314C5.53108 6.11314 5.61794 6.08042 5.6832 6.01515C5.74303 5.94989 5.78119 5.86834 5.78119 5.77588V3.05657C5.78119 2.96411 5.74303 2.88257 5.6832 2.8173C5.61794 2.75204 5.53108 2.71931 5.43863 2.71931ZM7.14085 2.03417C7.04839 2.03417 6.96685 2.07221 6.90158 2.13748C6.83632 2.20274 6.79828 2.28429 6.79828 2.37674V6.45571C6.79828 6.54817 6.83632 6.62972 6.90158 6.69498C6.96685 6.76024 7.04839 6.79828 7.14085 6.79828C7.23331 6.79828 7.31486 6.76024 7.38012 6.69498C7.44538 6.62972 7.48342 6.54817 7.48342 6.45571V2.37674C7.48342 2.28429 7.44538 2.20274 7.38012 2.13748C7.31486 2.07221 7.23331 2.03417 7.14085 2.03417Z" fill="white"/>
</svg>
